<svg xmlns="http://www.w3.org/2000/svg" xmlns:xlink="http://www.w3.org/1999/xlink" width="150" zoomAndPan="magnify" viewBox="0 0 112.5 38.249999" height="51" preserveAspectRatio="xMidYMid meet" version="1.0"><defs><g/><clipPath id="f4f9a23954"><path d="M 13.691406 5.691406 L 40 5.691406 L 40 32 L 13.691406 32 Z M 13.691406 5.691406 " clip-rule="nonzero"/></clipPath></defs><g clip-path="url(#f4f9a23954)"><path fill="#ff8c68" d="M 30.449219 31.8125 L 17.664062 31.8125 L 21.414062 28.070312 L 30.449219 19.035156 L 30.449219 23.550781 L 36.066406 23.550781 L 36.066406 9.441406 L 21.957031 9.441406 L 21.957031 15.0625 L 26.476562 15.0625 L 17.441406 24.097656 L 13.691406 27.839844 L 13.691406 15.0625 L 18.207031 15.0625 L 18.207031 5.695312 L 39.816406 5.695312 L 39.816406 27.292969 L 30.449219 27.292969 Z M 30.449219 31.8125 " fill-opacity="1" fill-rule="evenodd"/></g><g fill="#faf5eb" fill-opacity="1"><g transform="translate(45.509305, 18.505411)"><g><path d="M 0.8125 0 L 0.8125 -7.90625 L 2.8125 -7.90625 L 2.8125 0 Z M 0.8125 0 "/></g></g></g><g fill="#faf5eb" fill-opacity="1"><g transform="translate(49.138615, 18.505411)"><g><path d="M 5.515625 0 L 2.78125 -4.515625 L 2.71875 -4.515625 L 2.71875 0 L 0.8125 0 L 0.8125 -7.90625 L 2.875 -7.90625 L 5.40625 -3.796875 L 5.46875 -3.796875 L 5.46875 -7.90625 L 7.390625 -7.90625 L 7.390625 0 Z M 5.515625 0 "/></g></g></g><g fill="#faf5eb" fill-opacity="1"><g transform="translate(57.33902, 18.505411)"><g><path d="M 5.5625 0 L 3.328125 -3.21875 L 2.84375 -3.21875 L 2.84375 0 L 0.84375 0 L 0.84375 -7.90625 L 2.84375 -7.90625 L 2.84375 -4.828125 L 3.328125 -4.828125 L 5.59375 -7.90625 L 7.78125 -7.90625 L 4.921875 -4.15625 L 7.828125 0 Z M 5.5625 0 "/></g></g></g><g fill="#faf5eb" fill-opacity="1"><g transform="translate(65.21784, 18.505411)"><g><path d="M 0.84375 -7.90625 L 4.59375 -7.90625 C 5.300781 -7.90625 5.832031 -7.800781 6.1875 -7.59375 C 6.550781 -7.382812 6.789062 -7.09375 6.90625 -6.71875 C 7.019531 -6.34375 7.078125 -5.84375 7.078125 -5.21875 C 7.078125 -4.625 7.019531 -4.140625 6.90625 -3.765625 C 6.800781 -3.390625 6.566406 -3.085938 6.203125 -2.859375 C 5.835938 -2.640625 5.300781 -2.53125 4.59375 -2.53125 L 2.84375 -2.53125 L 2.84375 0 L 0.84375 0 Z M 3.765625 -4.140625 C 4.171875 -4.140625 4.460938 -4.160156 4.640625 -4.203125 C 4.816406 -4.253906 4.929688 -4.347656 4.984375 -4.484375 C 5.035156 -4.628906 5.0625 -4.875 5.0625 -5.21875 C 5.0625 -5.550781 5.035156 -5.785156 4.984375 -5.921875 C 4.929688 -6.066406 4.816406 -6.164062 4.640625 -6.21875 C 4.472656 -6.269531 4.179688 -6.296875 3.765625 -6.296875 L 2.84375 -6.296875 L 2.84375 -4.140625 Z M 3.765625 -4.140625 "/></g></g></g><g fill="#faf5eb" fill-opacity="1"><g transform="translate(72.683194, 18.505411)"><g><path d="M 4.0625 0.09375 C 2.957031 0.09375 2.164062 -0.0195312 1.6875 -0.25 C 1.21875 -0.488281 0.921875 -0.863281 0.796875 -1.375 C 0.679688 -1.882812 0.625 -2.742188 0.625 -3.953125 C 0.625 -5.148438 0.679688 -6.003906 0.796875 -6.515625 C 0.921875 -7.035156 1.21875 -7.410156 1.6875 -7.640625 C 2.164062 -7.878906 2.957031 -8 4.0625 -8 C 5.175781 -8 5.96875 -7.878906 6.4375 -7.640625 C 6.90625 -7.410156 7.195312 -7.035156 7.3125 -6.515625 C 7.425781 -6.003906 7.484375 -5.148438 7.484375 -3.953125 C 7.484375 -2.742188 7.425781 -1.882812 7.3125 -1.375 C 7.195312 -0.863281 6.90625 -0.488281 6.4375 -0.25 C 5.96875 -0.0195312 5.175781 0.09375 4.0625 0.09375 Z M 4.0625 -1.53125 C 4.5625 -1.53125 4.894531 -1.566406 5.0625 -1.640625 C 5.226562 -1.722656 5.332031 -1.910156 5.375 -2.203125 C 5.425781 -2.492188 5.453125 -3.078125 5.453125 -3.953125 C 5.453125 -4.828125 5.425781 -5.40625 5.375 -5.6875 C 5.332031 -5.976562 5.226562 -6.164062 5.0625 -6.25 C 4.894531 -6.332031 4.5625 -6.375 4.0625 -6.375 C 3.5625 -6.375 3.222656 -6.332031 3.046875 -6.25 C 2.878906 -6.164062 2.769531 -5.972656 2.71875 -5.671875 C 2.675781 -5.378906 2.65625 -4.804688 2.65625 -3.953125 C 2.65625 -3.097656 2.675781 -2.519531 2.71875 -2.21875 C 2.769531 -1.914062 2.878906 -1.722656 3.046875 -1.640625 C 3.222656 -1.566406 3.5625 -1.53125 4.0625 -1.53125 Z M 4.0625 -1.53125 "/></g></g></g><g fill="#faf5eb" fill-opacity="1"><g transform="translate(80.803202, 18.505411)"><g><path d="M 2.359375 0 L 2.359375 -6.203125 L 0.1875 -6.203125 L 0.1875 -7.90625 L 6.5625 -7.90625 L 6.5625 -6.203125 L 4.359375 -6.203125 L 4.359375 0 Z M 2.359375 0 "/></g></g></g><g fill="#faf5eb" fill-opacity="1"><g transform="translate(45.509305, 26.446143)"><g><path d="M 4.25 0 L 3.6875 0 L 3.6875 -2.671875 L 2.5625 -0.375 L 2.171875 -0.375 L 1.03125 -2.671875 L 1.03125 0 L 0.46875 0 L 0.46875 -3.578125 L 1.1875 -3.578125 L 2.359375 -1.203125 L 3.546875 -3.578125 L 4.25 -3.578125 Z M 4.25 0 "/></g></g></g><g fill="#faf5eb" fill-opacity="1"><g transform="translate(50.994474, 26.446143)"><g><path d="M 3.03125 -3.03125 L 1.078125 -3.03125 L 1.078125 -2.0625 L 2.828125 -2.0625 L 2.828125 -1.53125 L 1.078125 -1.53125 L 1.078125 -0.546875 L 3.09375 -0.546875 L 3.09375 0 L 0.46875 0 L 0.46875 -3.578125 L 3.03125 -3.578125 Z M 3.03125 -3.03125 "/></g></g></g><g fill="#faf5eb" fill-opacity="1"><g transform="translate(55.107221, 26.446143)"><g><path d="M 0.46875 -3.578125 L 1.9375 -3.578125 C 2.46875 -3.578125 2.90625 -3.40625 3.25 -3.0625 C 3.601562 -2.726562 3.78125 -2.300781 3.78125 -1.78125 C 3.78125 -1.269531 3.601562 -0.84375 3.25 -0.5 C 2.90625 -0.164062 2.460938 0 1.921875 0 L 0.46875 0 Z M 1.078125 -3.03125 L 1.078125 -0.546875 L 1.953125 -0.546875 C 2.304688 -0.546875 2.597656 -0.660156 2.828125 -0.890625 C 3.054688 -1.117188 3.171875 -1.414062 3.171875 -1.78125 C 3.171875 -2.144531 3.050781 -2.441406 2.8125 -2.671875 C 2.570312 -2.910156 2.273438 -3.03125 1.921875 -3.03125 Z M 1.078125 -3.03125 "/></g></g></g><g fill="#faf5eb" fill-opacity="1"><g transform="translate(59.827097, 26.446143)"><g><path d="M 1.078125 0 L 0.46875 0 L 0.46875 -3.578125 L 1.078125 -3.578125 Z M 1.078125 0 "/></g></g></g><g fill="#faf5eb" fill-opacity="1"><g transform="translate(62.133761, 26.446143)"><g><path d="M 2.78125 -0.8125 L 0.96875 -0.8125 L 0.640625 0 L 0 0 L 1.578125 -3.578125 L 2.203125 -3.578125 L 3.765625 0 L 3.125 0 Z M 2.546875 -1.34375 L 1.875 -2.9375 L 1.203125 -1.34375 Z M 2.546875 -1.34375 "/></g></g></g><g fill="#faf5eb" fill-opacity="1"><g transform="translate(66.664869, 26.446143)"><g/></g></g><g fill="#faf5eb" fill-opacity="1"><g transform="translate(68.747049, 26.446143)"><g><path d="M 2.78125 -0.8125 L 0.96875 -0.8125 L 0.640625 0 L 0 0 L 1.578125 -3.578125 L 2.203125 -3.578125 L 3.765625 0 L 3.125 0 Z M 2.546875 -1.34375 L 1.875 -2.9375 L 1.203125 -1.34375 Z M 2.546875 -1.34375 "/></g></g></g><g fill="#faf5eb" fill-opacity="1"><g transform="translate(73.278157, 26.446143)"><g><path d="M 2.921875 -1.75 L 3.4375 -1.75 L 3.4375 -0.4375 C 3.257812 -0.300781 3.046875 -0.1875 2.796875 -0.09375 C 2.546875 -0.0078125 2.296875 0.03125 2.046875 0.03125 C 1.523438 0.03125 1.082031 -0.140625 0.71875 -0.484375 C 0.351562 -0.835938 0.171875 -1.269531 0.171875 -1.78125 C 0.171875 -2.289062 0.351562 -2.71875 0.71875 -3.0625 C 1.09375 -3.414062 1.550781 -3.59375 2.09375 -3.59375 C 2.34375 -3.59375 2.585938 -3.546875 2.828125 -3.453125 C 3.078125 -3.367188 3.289062 -3.25 3.46875 -3.09375 L 3.125 -2.640625 C 2.832031 -2.921875 2.488281 -3.0625 2.09375 -3.0625 C 1.726562 -3.0625 1.414062 -2.9375 1.15625 -2.6875 C 0.90625 -2.4375 0.78125 -2.132812 0.78125 -1.78125 C 0.78125 -1.425781 0.90625 -1.125 1.15625 -0.875 C 1.414062 -0.632812 1.726562 -0.515625 2.09375 -0.515625 C 2.375 -0.515625 2.648438 -0.597656 2.921875 -0.765625 Z M 2.921875 -1.75 "/></g></g></g><g fill="#faf5eb" fill-opacity="1"><g transform="translate(77.865386, 26.446143)"><g><path d="M 3.03125 -3.03125 L 1.078125 -3.03125 L 1.078125 -2.0625 L 2.828125 -2.0625 L 2.828125 -1.53125 L 1.078125 -1.53125 L 1.078125 -0.546875 L 3.09375 -0.546875 L 3.09375 0 L 0.46875 0 L 0.46875 -3.578125 L 3.03125 -3.578125 Z M 3.03125 -3.03125 "/></g></g></g><g fill="#faf5eb" fill-opacity="1"><g transform="translate(81.978133, 26.446143)"><g><path d="M 3.578125 0 L 2.984375 0 L 1.078125 -2.5625 L 1.078125 0 L 0.46875 0 L 0.46875 -3.578125 L 1.0625 -3.578125 L 2.984375 -1 L 2.984375 -3.578125 L 3.578125 -3.578125 Z M 3.578125 0 "/></g></g></g><g fill="#faf5eb" fill-opacity="1"><g transform="translate(86.784741, 26.446143)"><g><path d="M 2.046875 -3.59375 C 2.304688 -3.59375 2.554688 -3.539062 2.796875 -3.4375 C 3.035156 -3.34375 3.238281 -3.210938 3.40625 -3.046875 L 3.0625 -2.59375 C 2.925781 -2.738281 2.769531 -2.851562 2.59375 -2.9375 C 2.414062 -3.019531 2.238281 -3.0625 2.0625 -3.0625 C 1.707031 -3.0625 1.40625 -2.9375 1.15625 -2.6875 C 0.90625 -2.445312 0.78125 -2.148438 0.78125 -1.796875 C 0.78125 -1.441406 0.90625 -1.140625 1.15625 -0.890625 C 1.40625 -0.648438 1.707031 -0.53125 2.0625 -0.53125 C 2.4375 -0.53125 2.769531 -0.671875 3.0625 -0.953125 L 3.421875 -0.5625 C 3.234375 -0.382812 3.015625 -0.238281 2.765625 -0.125 C 2.523438 -0.0195312 2.28125 0.03125 2.03125 0.03125 C 1.507812 0.03125 1.066406 -0.140625 0.703125 -0.484375 C 0.347656 -0.835938 0.171875 -1.273438 0.171875 -1.796875 C 0.171875 -2.296875 0.351562 -2.71875 0.71875 -3.0625 C 1.082031 -3.414062 1.523438 -3.59375 2.046875 -3.59375 Z M 2.046875 -3.59375 "/></g></g></g><g fill="#faf5eb" fill-opacity="1"><g transform="translate(91.106669, 26.446143)"><g><path d="M 1.9375 -1.1875 L 1.9375 0 L 1.34375 0 L 1.34375 -1.171875 L 0 -3.578125 L 0.609375 -3.578125 L 1.640625 -1.828125 L 2.640625 -3.578125 L 3.25 -3.578125 Z M 1.9375 -1.1875 "/></g></g></g></svg>